<svg width="24" height="24" viewBox="0 0 24 24" fill="none" xmlns="http://www.w3.org/2000/svg">
  <path d="M4 7C4 5.61929 5.11929 4.5 6.5 4.5H17.5C18.8807 4.5 20 5.61929 20 7V8.5H4V7Z"
    fill="currentColor" stroke="currentColor" />
  <path
    d="M4.25 8.25H19.75V17.5C19.75 18.7426 18.7426 19.75 17.5 19.75H6.5C5.25736 19.75 4.25 18.7426 4.25 17.5V8.25Z"
    stroke="currentColor" stroke-width="1.5" />
  <path d="M7.5 3.25C7.5 2.83579 7.83579 2.5 8.25 2.5C8.66421 2.5 9 2.83579 9 3.25V4.5H7.5V3.25Z"
    fill="currentColor" stroke="currentColor" />
  <path
    d="M15 3.25C15 2.83579 15.3358 2.5 15.75 2.5C16.1642 2.5 16.5 2.83579 16.5 3.25V4.5H15V3.25Z"
    fill="currentColor" stroke="currentColor" />
  <circle cx="9" cy="13" r="2" fill="currentColor" />
</svg>