<svg width="24" height="24" viewBox="0 0 24 24" fill="none" xmlns="http://www.w3.org/2000/svg">
  <path fill-rule="evenodd" clip-rule="evenodd"
    d="M5.5 2.5H18.5C20.1569 2.5 21.5 3.84315 21.5 5.5V18.5C21.5 20.1569 20.1569 21.5 18.5 21.5H5.5C3.84315 21.5 2.5 20.1569 2.5 18.5V5.5C2.5 3.84315 3.84315 2.5 5.5 2.5ZM5.5 4.5C4.94772 4.5 4.5 4.94772 4.5 5.5V18.5C4.5 19.0523 4.94772 19.5 5.5 19.5H18.5C19.0523 19.5 19.5 19.0523 19.5 18.5V5.5C19.5 4.94772 19.0523 4.5 18.5 4.5H5.5Z"
    fill="currentColor" />
  <path fill-rule="evenodd" clip-rule="evenodd"
    d="M9.52498 8.50031C9.79877 8.50715 10.0578 8.62599 10.2415 8.82909L19.7415 19.3291C20.1121 19.7386 20.0805 20.371 19.6709 20.7415C19.2614 21.1121 18.629 21.0805 18.2585 20.6709L9.46376 10.9505L4.70711 15.7071C4.31658 16.0976 3.68342 16.0976 3.29289 15.7071C2.90237 15.3166 2.90237 14.6834 3.29289 14.2929L8.79289 8.79289C8.98656 8.59923 9.25118 8.49347 9.52498 8.50031Z"
    fill="currentColor" />
  <path fill-rule="evenodd" clip-rule="evenodd"
    d="M21.2071 8.20711L14.7071 14.7071L13.2929 13.2929L19.7929 6.79289L21.2071 8.20711Z"
    fill="currentColor" />
</svg>