<svg width="72" height="24" viewBox="0 0 72 24" fill="none" xmlns="http://www.w3.org/2000/svg">
  <path
    d="M19.8715 11.9758H12.2875C10.9115 11.9758 9.79945 11.5678 8.95145 10.7518C8.10345 9.91977 7.67945 8.82377 7.67945 7.46377C7.67945 6.10377 8.10345 5.01577 8.95145 4.19977C9.79945 3.36777 10.9115 2.95177 12.2875 2.95177H19.8715C21.2475 2.95177 22.3595 3.36777 23.2075 4.19977C24.0555 5.01577 24.4795 6.10377 24.4795 7.46377C24.4795 8.82377 24.0555 9.91977 23.2075 10.7518C22.3595 11.5678 21.2475 11.9758 19.8715 11.9758ZM13.1275 8.35177H19.0315C19.3035 8.35177 19.5275 8.27177 19.7035 8.11177C19.8795 7.93577 19.9675 7.71177 19.9675 7.43977C19.9675 7.18377 19.8795 6.97577 19.7035 6.81577C19.5275 6.63977 19.3035 6.55177 19.0315 6.55177H13.1275C12.8555 6.55177 12.6315 6.63977 12.4555 6.81577C12.2795 6.97577 12.1915 7.18377 12.1915 7.43977C12.1915 7.71177 12.2795 7.93577 12.4555 8.11177C12.6315 8.27177 12.8555 8.35177 13.1275 8.35177ZM24.7195 13.7758V17.3998H18.3355V20.9998H13.8235V17.3998H7.43945V13.7758H24.7195Z"
    fill="white" />
  <path
    d="M27.5957 8.97577C30.4117 8.76777 32.2917 7.97577 33.2357 6.59977H28.0757V2.99977H44.3957V6.59977H39.2357C40.1797 7.97577 42.0597 8.76777 44.8757 8.97577L43.9157 12.3358C42.2997 12.2078 40.8357 11.8798 39.5237 11.3518C38.2117 10.8238 37.1157 10.1278 36.2357 9.26377C35.3557 10.1278 34.2597 10.8238 32.9477 11.3518C31.6357 11.8798 30.1717 12.2078 28.5557 12.3358L27.5957 8.97577ZM27.5957 17.3998V13.7998H44.8757V17.3998H38.4917V20.9998H33.9797V17.3998H27.5957Z"
    fill="white" />
  <path
    d="M64.552 2.75977V9.69577H66.352V13.2958H64.552V20.9998H60.04V2.75977H64.552ZM47.752 2.99977H57.952V6.59977H52.264V16.6798H58.432V20.2798H47.752V2.99977Z"
    fill="white" />
</svg>