<svg width="24" height="24" viewBox="0 0 24 24" fill="none" xmlns="http://www.w3.org/2000/svg">
  <path
    d="M10 5C9.37935 4.99968 8.77387 5.19186 8.26702 5.55006C7.76016 5.90826 7.37688 6.41484 7.17 7H5C4.44772 7 4 7.44772 4 8C4 8.55229 4.44772 9 5 9H7.17C7.3766 9.58553 7.75974 10.0926 8.2666 10.4512C8.77346 10.8099 9.37909 11.0025 10 11.0025C10.6209 11.0025 11.2265 10.8099 11.7334 10.4512C12.2403 10.0926 12.6234 9.58553 12.83 9H19C19.5523 9 20 8.55229 20 8C20 7.44772 19.5523 7 19 7H12.83C12.6231 6.41484 12.2398 5.90826 11.733 5.55006C11.2261 5.19186 10.6207 4.99968 10 5ZM9 8C9 7.73478 9.10536 7.48043 9.29289 7.29289C9.48043 7.10536 9.73478 7 10 7C10.2652 7 10.5196 7.10536 10.7071 7.29289C10.8946 7.48043 11 7.73478 11 8C11 8.26522 10.8946 8.51957 10.7071 8.70711C10.5196 8.89464 10.2652 9 10 9C9.73478 9 9.48043 8.89464 9.29289 8.70711C9.10536 8.51957 9 8.26522 9 8ZM14 13C13.3793 12.9997 12.7739 13.1919 12.267 13.5501C11.7602 13.9083 11.3769 14.4148 11.17 15H5C4.44772 15 4 15.4477 4 16C4 16.5523 4.44772 17 5 17H11.17C11.3766 17.5855 11.7597 18.0926 12.2666 18.4512C12.7735 18.8099 13.3791 19.0025 14 19.0025C14.6209 19.0025 15.2265 18.8099 15.7334 18.4512C16.2403 18.0926 16.6234 17.5855 16.83 17H19C19.5523 17 20 16.5523 20 16C20 15.4477 19.5523 15 19 15H16.83C16.6231 14.4148 16.2398 13.9083 15.733 13.5501C15.2261 13.1919 14.6207 12.9997 14 13ZM13 16C13 15.7348 13.1054 15.4804 13.2929 15.2929C13.4804 15.1054 13.7348 15 14 15C14.2652 15 14.5196 15.1054 14.7071 15.2929C14.8946 15.4804 15 15.7348 15 16C15 16.2652 14.8946 16.5196 14.7071 16.7071C14.5196 16.8946 14.2652 17 14 17C13.7348 17 13.4804 16.8946 13.2929 16.7071C13.1054 16.5196 13 16.2652 13 16Z"
    fill="currentColor" />
</svg>