<svg width="24" height="24" viewBox="0 0 24 24" fill="none" xmlns="http://www.w3.org/2000/svg">
  <path fill-rule="evenodd" clip-rule="evenodd"
    d="M20.131 3.1601C19.5684 2.59768 18.8055 2.28174 18.01 2.28174C17.2145 2.28174 16.4516 2.59768 15.889 3.1601L15.182 3.8681L20.132 8.8181L20.838 8.1111C21.1167 7.83252 21.3377 7.50178 21.4885 7.13777C21.6393 6.77376 21.7169 6.38361 21.7169 5.9896C21.7169 5.59559 21.6393 5.20544 21.4885 4.84143C21.3377 4.47742 21.1167 4.14668 20.838 3.8681L20.131 3.1601ZM18.717 10.2321L13.767 5.2821L4.67703 14.3731C4.47811 14.5721 4.33915 14.8229 4.27603 15.0971L3.24703 19.5521C3.20868 19.7175 3.21308 19.8899 3.2598 20.0531C3.30653 20.2164 3.39404 20.365 3.51408 20.485C3.63413 20.6051 3.78277 20.6926 3.94599 20.7393C4.10921 20.786 4.28164 20.7904 4.44703 20.7521L8.90303 19.7241C9.17683 19.6608 9.42735 19.5219 9.62603 19.3231L18.717 10.2321Z"
    fill="url(#paint0_linear_578_6825)" />
  <defs>
    <linearGradient id="paint0_linear_578_6825" x1="7.28122" y1="2.84565" x2="18.9543" y2="20.7776"
      gradientUnits="userSpaceOnUse">
      <stop stop-color="#334E98" />
      <stop offset="0.634427" stop-color="#041135" />
      <stop offset="0.95423" stop-color="#062271" />
    </linearGradient>
  </defs>
</svg>