<svg width="24" height="24" viewBox="0 0 24 24" fill="none" xmlns="http://www.w3.org/2000/svg">
  <path
    d="M2 8C2 7.44772 2.44772 7 3 7H6.5C7.05228 7 7.5 7.44772 7.5 8V21C7.5 21.5523 7.05228 22 6.5 22H3C2.44772 22 2 21.5523 2 21V8Z"
    fill="currentColor" />
  <path
    d="M9.25 3C9.25 2.44772 9.69772 2 10.25 2H13.75C14.3023 2 14.75 2.44772 14.75 3V21C14.75 21.5523 14.3023 22 13.75 22H10.25C9.69772 22 9.25 21.5523 9.25 21V3Z"
    fill="currentColor" />
  <path
    d="M16.5 11C16.5 10.4477 16.9477 10 17.5 10H21C21.5523 10 22 10.4477 22 11V21C22 21.5523 21.5523 22 21 22H17.5C16.9477 22 16.5 21.5523 16.5 21V11Z"
    fill="currentColor" />
</svg>
  