<svg width="24" height="24" viewBox="0 0 24 24" fill="none" xmlns="http://www.w3.org/2000/svg">
  <path fill-rule="evenodd" clip-rule="evenodd"
    d="M8.89019 6.4C9.59031 4.41917 11.4794 3 13.7 3C16.0014 3 17.9468 4.52438 18.5815 6.61851C20.6756 7.25323 22.2 9.19859 22.2 11.5C22.2 14.3167 19.9166 16.6 17.1 16.6H14.2265C13.9515 18.5223 12.2983 20 10.3 20C8.29223 20 6.63286 18.5083 6.36969 16.5728C3.80223 16.3075 1.79999 14.1376 1.79999 11.5C1.79999 8.68335 4.08334 6.4 6.89999 6.4H8.89019ZM6.89999 13.2C7.83887 13.2 8.59999 12.4389 8.59999 11.5C8.59999 10.5611 7.83887 9.8 6.89999 9.8C5.9611 9.8 5.19999 10.5611 5.19999 11.5C5.19999 12.4389 5.9611 13.2 6.89999 13.2ZM18.8 11.5C18.8 12.4389 18.0389 13.2 17.1 13.2C16.1611 13.2 15.4 12.4389 15.4 11.5C15.4 10.5611 16.1611 9.8 17.1 9.8C18.0389 9.8 18.8 10.5611 18.8 11.5ZM12 13.2C12.9389 13.2 13.7 12.4389 13.7 11.5C13.7 10.5611 12.9389 9.8 12 9.8C11.0611 9.8 10.3 10.5611 10.3 11.5C10.3 12.4389 11.0611 13.2 12 13.2Z"
    fill="currentColor" />
</svg>